<?xml version="1.0"?>
<!--Icons from directory ""-->
<svg xmlns="http://www.w3.org/2000/svg" width="60" height="256" viewBox="0 0 60 256"><svg width="60" viewBox="-10 -10 60 128" height="128" id="sprite_social" y="0"><svg xmlns:xlink="http://www.w3.org/1999/xlink" id="sprite_social-icon-facebook" enable-background="new 0 0 8.672 18.944" xml:space="preserve" height="39" width="29" version="1.0" y="0" x="0px" viewBox="-10 -10 28.672 38.944"><path d="m6.275 3.356h2.398v-3.356h-2.878c-3.139 0.181-4.255 2.387-3.847 6.114h-1.948v3.518h1.959v9.312h3.837v-9.312h2.857v-3.518h-2.866c-0.022-1.045-0.037-2.405 0.488-2.758z" fill="#fff"/></svg><svg xmlns:xlink="http://www.w3.org/1999/xlink" id="sprite_social-icon-twitter" enable-background="new 0 0 17.5 14.663" xml:space="preserve" height="35" width="38" version="1.0" y="39" x="0px" viewBox="-10 -10 37.5 34.663"><g id="sprite_social-icon-twitter-W6EeEF_1_">		<path fill-rule="evenodd" clip-rule="evenodd" d="m11.283 0.153c1.736-0.484 3.074 0.264 3.685 1.15 0.694-0.225 1.372-0.47 2.072-0.69-0.004 0.841-0.538 1.478-0.883 1.728 0.704 0.165 1.343-0.481 1.343-0.481-0.175 0.977-1.035 1.746-1.611 1.977-0.239 6.592-3.272 10.956-10.382 10.823h-0.46c-0.422 0-4.29-0.45-5.047-1.843 2.341 0.192 4.011-0.412 4.835-1.15-0.989-0.293-2.761-0.464-3.07-2.881 0.362 0.105 0.583 0.223 1.228 0.117-1.236-0.836-2.608-1.537-2.532-3.685 0.294 0.319 1.1 0.523 1.381 0.461-0.725-0.235-2.03-3.281-0.921-4.836 1.873 1.812 3.848 3.521 7.369 3.685 0.216-2.24 1.171-3.74 2.993-4.375z" fill="#fff"/></g></svg><svg xmlns:xlink="http://www.w3.org/1999/xlink" id="sprite_social-icon-youtube" enable-background="new 0 0 19.979 14.015" xml:space="preserve" height="34" width="40" version="1.0" y="74" x="0px" viewBox="-10 -10 39.979 34.015"><path d="m17.145 0h-14.31c-1.56 0-2.835 1.275-2.835 2.835v8.345c0 1.56 1.275 2.835 2.835 2.835h14.31c1.56 0 2.835-1.275 2.835-2.835v-8.345c-0.001-1.56-1.276-2.835-2.835-2.835zm-10.109 10.392v-6.769l6.769 3.384-6.769 3.385z" fill="#fff"/></svg></svg><svg width="60" viewBox="-10 -10 60 128" height="128" id="sprite_social_active" y="128"><svg xmlns:xlink="http://www.w3.org/1999/xlink" id="sprite_social_active-icon-facebook" enable-background="new 0 0 8.672 18.944" xml:space="preserve" height="39" width="29" version="1.0" y="0" x="0px" viewBox="-10 -10 28.672 38.944"><path d="m6.275 3.356h2.398v-3.356h-2.878c-3.139 0.181-4.255 2.387-3.847 6.114h-1.948v3.518h1.959v9.312h3.837v-9.312h2.857v-3.518h-2.866c-0.022-1.045-0.037-2.405 0.488-2.758z" fill="#88b6d1"/></svg><svg xmlns:xlink="http://www.w3.org/1999/xlink" id="sprite_social_active-icon-twitter" enable-background="new 0 0 17.5 14.663" xml:space="preserve" height="35" width="38" version="1.0" y="39" x="0px" viewBox="-10 -10 37.5 34.663"><g id="sprite_social_active-icon-twitter-W6EeEF_1_">		<path fill-rule="evenodd" clip-rule="evenodd" d="m11.283 0.153c1.736-0.484 3.074 0.264 3.685 1.15 0.694-0.225 1.372-0.47 2.072-0.69-0.004 0.841-0.538 1.478-0.883 1.728 0.704 0.165 1.343-0.481 1.343-0.481-0.175 0.977-1.035 1.746-1.611 1.977-0.239 6.592-3.272 10.956-10.382 10.823h-0.46c-0.422 0-4.29-0.45-5.047-1.843 2.341 0.192 4.011-0.412 4.835-1.15-0.989-0.293-2.761-0.464-3.07-2.881 0.362 0.105 0.583 0.223 1.228 0.117-1.236-0.836-2.608-1.537-2.532-3.685 0.294 0.319 1.1 0.523 1.381 0.461-0.725-0.235-2.03-3.281-0.921-4.836 1.873 1.812 3.848 3.521 7.369 3.685 0.216-2.24 1.171-3.74 2.993-4.375z" fill="#88b6d1"/></g></svg><svg xmlns:xlink="http://www.w3.org/1999/xlink" id="sprite_social_active-icon-youtube" enable-background="new 0 0 19.979 14.015" xml:space="preserve" height="34" width="40" version="1.0" y="74" x="0px" viewBox="-10 -10 39.979 34.015"><path d="m17.145 0h-14.31c-1.56 0-2.835 1.275-2.835 2.835v8.345c0 1.56 1.275 2.835 2.835 2.835h14.31c1.56 0 2.835-1.275 2.835-2.835v-8.345c-0.001-1.56-1.276-2.835-2.835-2.835zm-10.109 10.392v-6.769l6.769 3.384-6.769 3.385z" fill="#88b6d1"/></svg></svg></svg>
