<?xml version="1.0" encoding="utf-8"?>
<!-- Generator: Adobe Illustrator 17.0.0, SVG Export Plug-In . SVG Version: 6.00 Build 0)  -->
<!DOCTYPE svg PUBLIC "-//W3C//DTD SVG 1.1//EN" "http://www.w3.org/Graphics/SVG/1.1/DTD/svg11.dtd">
<svg version="1.1" id="Слой_1" xmlns="http://www.w3.org/2000/svg" xmlns:xlink="http://www.w3.org/1999/xlink" x="0px" y="0px"
	 width="40px" height="40px" viewBox="0 0 40 40" enable-background="new 0 0 40 40" xml:space="preserve">
<g>
	<g>
		<path fill="#FFFFFF" d="M0.09,29.135c0-9.679,0-19.359,0-29.038c13.333,0,26.667,0,40,0c0,9.712,0,19.423,0,29.135
			c-0.027-0.107-0.063-0.212-0.079-0.321c-0.186-1.245-1.041-2.115-2.208-2.182c-0.745-0.043-1.493-0.025-2.24-0.025
			c-2.525-0.002-5.049-0.001-7.574-0.001c-1.583,0-3.166,0-4.748,0c-1.554,0.001-3.108,0.003-4.662,0.004
			c-1.388,0.001-2.776,0.001-4.165,0.001c-1.614,0-3.228-0.001-4.842,0c-1.373,0.001-2.747,0.001-4.12,0.004
			c-1.046,0.002-2.094-0.027-3.138,0.025c-1.04,0.051-1.895,0.88-2.12,1.948C0.163,28.835,0.125,28.985,0.09,29.135z M20.1,18.434
			c0.689,0,1.378,0,2.067,0c4.973,0,9.947,0.001,14.92-0.001c0.95,0,1.217-0.29,1.189-1.286c-0.051-1.773-0.381-3.483-0.973-5.141
			c-1.392-3.894-3.875-6.793-7.171-8.915c-2.801-1.803-5.872-2.714-9.136-2.876c-1.953-0.097-3.883,0.096-5.777,0.619
			C10.661,2.094,6.945,4.667,4.333,8.923c-1.553,2.531-2.361,5.32-2.433,8.348c-0.019,0.789,0.219,1.073,0.943,1.157
			c0.133,0.016,0.269,0.005,0.404,0.005C8.865,18.433,14.482,18.433,20.1,18.434z M4.43,22.571
			c-0.867-0.894-1.678-1.744-2.506-2.577c-0.374-0.376-0.851-0.377-1.171-0.048c-0.306,0.316-0.321,0.888,0.02,1.249
			c1.011,1.069,2.033,2.127,3.069,3.168c0.383,0.385,0.807,0.363,1.203-0.023c0.432-0.42,0.842-0.865,1.263-1.299
			c0.406-0.418,0.814-0.835,1.233-1.263c0.156,0.154,0.277,0.27,0.395,0.391c0.69,0.709,1.377,1.423,2.071,2.129
			c0.451,0.459,0.851,0.455,1.296,0.003c0.542-0.551,1.088-1.098,1.623-1.657c0.263-0.275,0.505-0.572,0.77-0.875
			c0.862,0.89,1.655,1.718,2.457,2.533c0.502,0.51,0.896,0.505,1.403-0.005c0.458-0.461,0.906-0.933,1.359-1.401
			c0.35-0.362,0.701-0.723,1.05-1.084c0.817,0.831,1.585,1.616,2.357,2.397c0.633,0.641,0.95,0.633,1.59-0.028
			c0.73-0.754,1.461-1.507,2.209-2.279c0.828,0.856,1.629,1.696,2.442,2.521c0.467,0.474,0.869,0.47,1.337,0.01
			c0.287-0.282,0.563-0.576,0.844-0.864c0.535-0.551,1.071-1.102,1.608-1.655c0.842,0.851,1.643,1.667,2.451,2.476
			c0.523,0.523,0.869,0.524,1.389-0.007c0.909-0.93,1.811-1.868,2.714-2.805c0.085-0.089,0.168-0.184,0.236-0.288
			c0.234-0.362,0.216-0.725-0.043-1.059c-0.249-0.321-0.672-0.387-1.013-0.154c-0.174,0.119-0.327,0.278-0.478,0.432
			c-0.71,0.727-1.416,1.458-2.131,2.195c-0.803-0.821-1.573-1.601-2.334-2.391c-0.605-0.628-0.956-0.632-1.555-0.012
			c-0.772,0.799-1.552,1.59-2.352,2.408c-0.763-0.789-1.515-1.567-2.269-2.343c-0.688-0.708-1.01-0.709-1.698-0.001
			c-0.721,0.742-1.44,1.486-2.172,2.241c-0.797-0.808-1.566-1.589-2.337-2.368c-0.666-0.673-0.962-0.666-1.617,0.014
			c-0.757,0.787-1.52,1.568-2.294,2.367c-0.773-0.801-1.533-1.549-2.246-2.344c-0.536-0.598-1.129-0.667-1.726,0.006
			c-0.698,0.787-1.457,1.513-2.212,2.29c-0.779-0.806-1.52-1.596-2.286-2.357c-0.723-0.718-0.984-0.701-1.693,0.029
			C5.942,21.008,5.201,21.775,4.43,22.571z"/>
		<path fill="#81b3d2" d="M0.09,29.135c0.035-0.15,0.073-0.299,0.104-0.45c0.225-1.068,1.081-1.897,2.12-1.948c1.044-0.051,2.092-0.022,3.138-0.025
			c1.373-0.003,2.747-0.004,4.12-0.004c1.614-0.001,3.228,0,4.842,0c1.388,0,2.776,0,4.165-0.001
			c1.554-0.001,3.108-0.004,4.662-0.004c1.583-0.001,3.166,0,4.748,0c2.525,0,5.049-0.001,7.574,0.001
			c0.747,0.001,1.495-0.018,2.24,0.025c1.167,0.068,2.022,0.937,2.208,2.182c0.016,0.109,0.052,0.214,0.079,0.321
			c0,0.769,0,1.538,0,2.308c-0.207,1.133-0.723,2.002-1.812,2.355c0,0.299,0.01,0.555-0.001,0.81c-0.131,2.96-2.368,5.3-5.086,5.311
			c-2.212,0.009-4.425,0.009-6.637,0.006c-3.319-0.004-6.638-0.02-9.957-0.02c-3.154,0-6.309,0.01-9.463,0.022
			c-1.144,0.004-2.187-0.336-3.102-1.062c-1.445-1.146-2.121-2.714-2.146-4.625c-0.002-0.166-0.053-0.437-0.15-0.479
			c-0.986-0.429-1.475-1.239-1.645-2.319C0.09,30.737,0.09,29.936,0.09,29.135z M20.09,28.44c-5.722,0-11.443,0-17.165,0
			c-0.15,0-0.3-0.005-0.449,0.012c-0.402,0.046-0.681,0.262-0.699,0.716c-0.029,0.701-0.067,1.407-0.026,2.105
			c0.045,0.765,0.291,0.98,0.991,0.989c1.655,0.02,3.311,0.041,4.966,0.04c2.027-0.001,4.054-0.033,6.081-0.035
			c1.566-0.001,3.131,0.036,4.697,0.035c2.057-0.002,4.114-0.033,6.171-0.035c1.551-0.001,3.101,0.034,4.652,0.034
			c1.655,0,3.311-0.026,4.966-0.035c1.058-0.006,2.116,0.007,3.173-0.005c0.701-0.008,0.963-0.303,0.975-1.064
			c0.008-0.509,0.009-1.019,0-1.528c-0.018-1.038-0.202-1.229-1.17-1.229C31.533,28.44,25.812,28.44,20.09,28.44z M3.527,34.033
			c-0.059,0.78,0.054,1.472,0.359,2.106c0.694,1.443,1.822,2.146,3.337,2.146c8.583-0.001,17.166,0,25.75-0.002
			c0.179,0,0.36-0.01,0.538-0.029c1.925-0.201,3.426-2.236,3.103-4.222C25.599,34.033,14.581,34.033,3.527,34.033z"/>
		<path fill="#FFFFFF" d="M0.09,31.538c0.17,1.079,0.659,1.89,1.645,2.319c0.097,0.042,0.148,0.313,0.15,0.479
			c0.025,1.911,0.701,3.478,2.146,4.625c0.915,0.726,1.958,1.066,3.102,1.062c3.154-0.012,6.309-0.022,9.463-0.022
			c3.319,0,6.638,0.016,9.957,0.02c2.212,0.003,4.425,0.003,6.637-0.006c2.718-0.011,4.955-2.351,5.086-5.311
			c0.011-0.255,0.001-0.511,0.001-0.81c1.089-0.354,1.605-1.222,1.812-2.355c0,2.853,0,5.705,0,8.558c-13.333,0-26.667,0-40,0
			C0.09,37.244,0.09,34.391,0.09,31.538z"/>
		<path fill="#81b3d2" d="M20.1,18.433c-5.617,0-11.235,0-16.852,0c-0.135,0-0.271,0.011-0.404-0.005C2.119,18.344,1.881,18.06,1.9,17.271
			c0.073-3.028,0.88-5.818,2.433-8.348c2.612-4.256,6.328-6.828,10.886-8.089c1.893-0.524,3.823-0.716,5.777-0.619
			c3.264,0.162,6.335,1.072,9.136,2.876c3.296,2.122,5.779,5.021,7.171,8.915c0.593,1.658,0.923,3.369,0.973,5.141
			c0.028,0.996-0.239,1.286-1.189,1.286c-4.973,0.002-9.947,0.001-14.92,0.001C21.478,18.434,20.789,18.434,20.1,18.433z
			 M36.59,16.68c0-0.114,0.007-0.223-0.001-0.332c-0.232-3.009-1.309-5.66-3.094-7.962c-2.146-2.767-4.88-4.611-8.102-5.632
			c-2.545-0.806-5.128-1.017-7.762-0.651c-2.792,0.388-5.355,1.411-7.68,3.098c-2.672,1.94-4.61,4.513-5.696,7.783
			c-0.39,1.174-0.647,2.385-0.678,3.696C14.583,16.68,25.558,16.68,36.59,16.68z"/>
		<path fill="#81b3d2" d="M4.43,22.571c0.771-0.796,1.512-1.562,2.255-2.327c0.709-0.73,0.97-0.748,1.693-0.029
			c0.766,0.761,1.507,1.551,2.286,2.357c0.756-0.777,1.514-1.503,2.212-2.29c0.597-0.673,1.19-0.604,1.726-0.006
			c0.713,0.795,1.474,1.543,2.246,2.344c0.774-0.799,1.537-1.58,2.294-2.367c0.655-0.681,0.951-0.688,1.617-0.014
			c0.771,0.779,1.54,1.56,2.337,2.368c0.732-0.755,1.451-1.499,2.172-2.241c0.688-0.708,1.01-0.708,1.698,0.001
			c0.754,0.776,1.505,1.555,2.269,2.343c0.799-0.818,1.58-1.608,2.352-2.408c0.599-0.62,0.95-0.616,1.555,0.012
			c0.761,0.79,1.532,1.57,2.334,2.391c0.715-0.737,1.421-1.468,2.131-2.195c0.151-0.154,0.304-0.313,0.478-0.432
			c0.341-0.233,0.764-0.167,1.013,0.154c0.259,0.334,0.277,0.697,0.043,1.059c-0.068,0.104-0.15,0.199-0.236,0.288
			c-0.903,0.937-1.805,1.875-2.714,2.805c-0.519,0.531-0.866,0.53-1.389,0.007c-0.808-0.809-1.609-1.625-2.451-2.476
			c-0.538,0.553-1.073,1.104-1.608,1.655c-0.281,0.289-0.557,0.583-0.844,0.864c-0.468,0.46-0.87,0.465-1.337-0.01
			c-0.813-0.825-1.614-1.665-2.442-2.521c-0.748,0.772-1.479,1.525-2.209,2.279c-0.64,0.661-0.956,0.669-1.59,0.028
			c-0.772-0.781-1.541-1.566-2.357-2.397c-0.35,0.361-0.7,0.722-1.05,1.084c-0.453,0.467-0.901,0.94-1.359,1.401
			c-0.507,0.51-0.901,0.515-1.403,0.005c-0.802-0.816-1.594-1.643-2.457-2.533c-0.265,0.303-0.507,0.601-0.77,0.875
			c-0.535,0.559-1.081,1.106-1.623,1.657c-0.445,0.452-0.845,0.457-1.296-0.003c-0.694-0.705-1.38-1.419-2.071-2.129
			c-0.117-0.121-0.239-0.237-0.395-0.391c-0.418,0.429-0.826,0.845-1.233,1.263c-0.421,0.433-0.831,0.878-1.263,1.299
			c-0.396,0.385-0.82,0.408-1.203,0.023c-1.036-1.041-2.058-2.099-3.069-3.168c-0.342-0.361-0.327-0.934-0.02-1.249
			c0.32-0.329,0.797-0.328,1.171,0.048C2.751,20.827,3.563,21.677,4.43,22.571z"/>
		<path fill="#FFFFFF" d="M20.09,28.44c5.722,0,11.443,0,17.165,0c0.968,0,1.152,0.191,1.17,1.229c0.009,0.509,0.008,1.019,0,1.528
			c-0.012,0.761-0.274,1.056-0.975,1.064c-1.058,0.012-2.116-0.001-3.173,0.005c-1.655,0.009-3.311,0.035-4.966,0.035
			c-1.551,0-3.101-0.035-4.652-0.034c-2.057,0.002-4.114,0.034-6.171,0.035c-1.566,0.001-3.131-0.036-4.697-0.035
			c-2.027,0.001-4.054,0.034-6.081,0.035c-1.655,0.001-3.311-0.02-4.966-0.04c-0.7-0.009-0.947-0.224-0.991-0.989
			c-0.041-0.699-0.003-1.404,0.026-2.105c0.019-0.454,0.297-0.67,0.699-0.716c0.148-0.017,0.299-0.012,0.449-0.012
			C8.647,28.44,14.369,28.44,20.09,28.44z"/>
		<path fill="#FFFFFF" d="M3.527,34.033c11.053,0,22.071,0,33.086,0c0.324,1.986-1.178,4.021-3.103,4.222
			c-0.179,0.019-0.359,0.029-0.538,0.029c-8.583,0.001-17.166,0.001-25.75,0.002c-1.516,0-2.643-0.703-3.337-2.146
			C3.581,35.505,3.469,34.813,3.527,34.033z"/>
		<path fill="#FFFFFF" d="M36.59,16.68c-11.032,0-22.007,0-33.013,0c0.031-1.311,0.288-2.522,0.678-3.696
			C5.34,9.713,7.278,7.14,9.95,5.201c2.324-1.687,4.888-2.71,7.68-3.098c2.634-0.366,5.217-0.155,7.762,0.651
			c3.222,1.021,5.957,2.865,8.102,5.632c1.785,2.302,2.863,4.953,3.094,7.962C36.597,16.456,36.59,16.566,36.59,16.68z
			 M20.382,8.178c-0.576,0.086-0.86,0.265-0.994,0.687c-0.122,0.384-0.003,0.694,0.275,0.936c0.32,0.28,1.065,0.275,1.402,0.009
			c0.383-0.302,0.46-0.94,0.1-1.256C20.952,8.367,20.647,8.3,20.382,8.178z M15.935,5.27c-0.387-0.025-0.761,0.08-0.933,0.567
			c-0.131,0.372-0.036,0.696,0.242,0.945c0.312,0.279,1.001,0.311,1.36,0.073c0.314-0.208,0.436-0.519,0.369-0.903
			C16.897,5.51,16.542,5.272,15.935,5.27z M24.859,5.27c-0.768-0.003-1.226,0.538-0.978,1.168c0.184,0.466,0.566,0.571,0.991,0.567
			c0.414-0.003,0.771-0.12,0.938-0.579C26.037,5.805,25.597,5.273,24.859,5.27z"/>
		<path fill="#81b3d2" d="M20.382,8.178c0.264,0.121,0.57,0.189,0.783,0.376c0.36,0.316,0.283,0.953-0.1,1.256
			c-0.337,0.266-1.082,0.271-1.402-0.009c-0.277-0.242-0.397-0.552-0.275-0.936C19.523,8.443,19.806,8.265,20.382,8.178z"/>
		<path fill="#81b3d2" d="M15.935,5.27c0.607,0.003,0.963,0.24,1.039,0.683c0.067,0.384-0.055,0.695-0.369,0.903
			c-0.359,0.238-1.048,0.206-1.36-0.073c-0.278-0.249-0.374-0.573-0.242-0.945C15.174,5.35,15.547,5.244,15.935,5.27z"/>
		<path fill="#81b3d2" d="M24.859,5.27c0.739,0.003,1.178,0.535,0.952,1.157c-0.167,0.459-0.524,0.575-0.938,0.579
			c-0.426,0.003-0.808-0.101-0.991-0.567C23.633,5.807,24.091,5.266,24.859,5.27z"/>
	</g>
</g>
</svg>
