<?xml version="1.0"?>
<!--Icons from directory ""-->
<svg xmlns="http://www.w3.org/2000/svg" width="50" height="372" viewBox="0 0 50 372"><svg xmlns:xlink="http://www.w3.org/1999/xlink" id="icon-calendar" xml:space="preserve" height="52" viewBox="-15 -15 49.875 51.916" width="50" version="1.0" y="0" x="0px" enable-background="new 0 0 19.875 21.916">	<path d="m17.04 2h-2.081v-2h-2v2h-6.042v-2h-2v2h-2.082c-1.56 0-2.835 1.275-2.835 2.835v14.246c0 1.56 1.275 2.835 2.835 2.835h14.205c1.56 0 2.835-1.275 2.835-2.835v-14.246c0-1.56-1.275-2.835-2.835-2.835zm0.835 17.081c0 0.453-0.383 0.835-0.835 0.835h-14.205c-0.452 0-0.835-0.382-0.835-0.835v-14.246c0-0.453 0.383-0.835 0.835-0.835h14.205c0.452 0 0.835 0.382 0.835 0.835v14.246z"/>	<rect y="6.958" x="4.917" height="2" width="2"/>	<rect y="6.958" x="12.959" height="2" width="2"/>	<rect y="6.958" x="8.938" height="2" width="2"/>	<rect y="10.958" x="4.917" height="2" width="2"/>	<rect y="10.958" x="12.959" height="2" width="2"/>	<rect y="10.958" x="8.938" height="2" width="2"/>	<rect y="14.942" x="4.917" height="2" width="2"/>	<rect y="14.942" x="12.959" height="2" width="2"/>	<rect y="14.942" x="8.938" height="2" width="2"/></svg><svg xmlns:xlink="http://www.w3.org/1999/xlink" id="icon-calendar1" xml:space="preserve" height="52" viewBox="-15 -15 49.875 51.916" width="50" version="1.0" y="52" x="0px" enable-background="new 0 0 19.875 21.916"><g fill="#ccc">	<path d="m17.04 2h-2.081v-2h-2v2h-6.042v-2h-2v2h-2.082c-1.56 0-2.835 1.275-2.835 2.835v14.246c0 1.56 1.275 2.835 2.835 2.835h14.205c1.56 0 2.835-1.275 2.835-2.835v-14.246c0-1.56-1.275-2.835-2.835-2.835zm0.835 17.081c0 0.453-0.383 0.835-0.835 0.835h-14.205c-0.452 0-0.835-0.382-0.835-0.835v-14.246c0-0.453 0.383-0.835 0.835-0.835h14.205c0.452 0 0.835 0.382 0.835 0.835v14.246z"/>	<rect y="6.958" x="4.917" height="2" width="2"/>	<rect y="6.958" x="12.959" height="2" width="2"/>	<rect y="6.958" x="8.938" height="2" width="2"/>	<rect y="10.958" x="4.917" height="2" width="2"/>	<rect y="10.958" x="12.959" height="2" width="2"/>	<rect y="10.958" x="8.938" height="2" width="2"/>	<rect y="14.942" x="4.917" height="2" width="2"/>	<rect y="14.942" x="12.959" height="2" width="2"/>	<rect y="14.942" x="8.938" height="2" width="2"/></g></svg><svg xmlns:xlink="http://www.w3.org/1999/xlink" id="icon-calendar2" xml:space="preserve" height="52" viewBox="-15 -15 49.875 51.916" width="50" version="1.0" y="104" x="0px" enable-background="new 0 0 19.875 21.916"><g fill="#81b3d2">	<path d="m17.04 2h-2.081v-2h-2v2h-6.042v-2h-2v2h-2.082c-1.56 0-2.835 1.275-2.835 2.835v14.246c0 1.56 1.275 2.835 2.835 2.835h14.205c1.56 0 2.835-1.275 2.835-2.835v-14.246c0-1.56-1.275-2.835-2.835-2.835zm0.835 17.081c0 0.453-0.383 0.835-0.835 0.835h-14.205c-0.452 0-0.835-0.382-0.835-0.835v-14.246c0-0.453 0.383-0.835 0.835-0.835h14.205c0.452 0 0.835 0.382 0.835 0.835v14.246z"/>	<rect y="6.958" x="4.917" height="2" width="2"/>	<rect y="6.958" x="12.959" height="2" width="2"/>	<rect y="6.958" x="8.938" height="2" width="2"/>	<rect y="10.958" x="4.917" height="2" width="2"/>	<rect y="10.958" x="12.959" height="2" width="2"/>	<rect y="10.958" x="8.938" height="2" width="2"/>	<rect y="14.942" x="4.917" height="2" width="2"/>	<rect y="14.942" x="12.959" height="2" width="2"/>	<rect y="14.942" x="8.938" height="2" width="2"/></g></svg><svg xmlns:xlink="http://www.w3.org/1999/xlink" id="icon-minus" xml:space="preserve" height="32" viewBox="-15 -15 39.917 31.917" width="40" version="1.0" y="156" x="0px" enable-background="new 0 0 9.917 1.917"><rect width="9.917" height="1.917"/></svg><svg xmlns:xlink="http://www.w3.org/1999/xlink" id="icon-minus1" enable-background="new 0 0 9.917 1.917" xml:space="preserve" height="32" viewBox="-15 -15 39.917 31.917" width="40" version="1.0" y="188" x="0px" fill="#cccccc"><rect width="9.917" height="1.917" fill="#ccc"/></svg><svg xmlns:xlink="http://www.w3.org/1999/xlink" id="icon-minus2" enable-background="new 0 0 9.917 1.917" xml:space="preserve" height="32" viewBox="-15 -15 39.917 31.917" width="40" version="1.0" y="220" x="0px" fill="#81b3d2"><rect width="9.917" height="1.917" fill="#81b3d2"/></svg><svg xmlns:xlink="http://www.w3.org/1999/xlink" id="icon-plus" xml:space="preserve" height="40" viewBox="-15 -15 39.917 39.917" width="40" version="1.0" y="252" x="0px" enable-background="new 0 0 9.917 9.917"><polygon points="9.917 4 5.917 4 5.917 0 4 0 4 4 0 4 0 5.917 4 5.917 4 9.917 5.917 9.917 5.917 5.917 9.917 5.917"/></svg><svg xmlns:xlink="http://www.w3.org/1999/xlink" id="icon-plus1" enable-background="new 0 0 9.917 9.917" xml:space="preserve" height="40" viewBox="-15 -15 39.917 39.917" width="40" version="1.0" y="292" x="0px" fill="#cccccc"><polygon points="9.917 4 5.917 4 5.917 0 4 0 4 4 0 4 0 5.917 4 5.917 4 9.917 5.917 9.917 5.917 5.917 9.917 5.917" fill="#ccc"/></svg><svg xmlns:xlink="http://www.w3.org/1999/xlink" id="icon-plus2" enable-background="new 0 0 9.917 9.917" xml:space="preserve" height="40" viewBox="-15 -15 39.917 39.917" width="40" version="1.0" y="332" x="0px" fill="#81b3d2"><polygon points="9.917 4 5.917 4 5.917 0 4 0 4 4 0 4 0 5.917 4 5.917 4 9.917 5.917 9.917 5.917 5.917 9.917 5.917" fill="#81b3d2"/></svg></svg>
