<?xml version="1.0"?>
<!--Icons from directory ""-->
<svg xmlns="http://www.w3.org/2000/svg" width="46" height="104" viewBox="0 0 46 104"><svg xmlns:xlink="http://www.w3.org/1999/xlink" id="logo-glukhanko" xml:space="preserve" height="50" viewBox="-10 -10 45.988 49.922" width="46" version="1.0" y="0" x="0px" enable-background="new 0 0 25.988 29.922"><path fill="#bdbbbc" d="m0 0h25.988v29.922l-12.994-4.811-12.994 4.811v-29.922zm20.154 17.895c-0.241 0-0.509-0.006-0.801-0.018-0.293-0.014-0.508-0.051-0.645-0.116-0.225-0.103-0.391-0.26-0.5-0.469-0.107-0.21-0.162-0.492-0.162-0.854 0-0.394 0.018-1.211 0.055-2.457 0.035-1.244 0.054-2.318 0.054-3.226 0-0.858-0.146-1.556-0.439-2.089-0.294-0.535-0.688-0.941-1.186-1.223-0.522-0.289-1.108-0.48-1.759-0.571-0.649-0.093-1.365-0.14-2.143-0.14-0.562 0-1.172 0.068-1.83 0.199-0.658 0.133-1.24 0.318-1.746 0.561-0.513 0.233-0.948 0.528-1.305 0.885s-0.536 0.76-0.536 1.209c0 0.521 0.174 0.946 0.52 1.271 0.346 0.323 0.857 0.486 1.533 0.486 0.476 0 0.827-0.043 1.057-0.132 0.229-0.089 0.437-0.213 0.621-0.374 0.139-0.119 0.242-0.283 0.314-0.486 0.072-0.205 0.109-0.375 0.109-0.512 0-0.306-0.057-0.621-0.17-0.951-0.112-0.329-0.181-0.573-0.205-0.734 0.145-0.104 0.335-0.207 0.572-0.308 0.236-0.101 0.532-0.151 0.885-0.151 0.394 0 0.711 0.09 0.952 0.266 0.241 0.177 0.417 0.393 0.53 0.651 0.104 0.225 0.172 0.501 0.205 0.831 0.031 0.327 0.048 0.593 0.048 0.795v1.154c-0.468 0.225-1.206 0.48-2.22 0.767-1.013 0.285-1.881 0.56-2.604 0.825-0.378 0.144-0.726 0.301-1.044 0.471-0.316 0.17-0.596 0.381-0.838 0.64-0.265 0.281-0.47 0.604-0.614 0.969-0.146 0.366-0.217 0.811-0.217 1.333 0 0.909 0.329 1.637 0.989 2.189 0.658 0.551 1.455 0.825 2.387 0.825 0.627 0 1.115-0.044 1.465-0.132 0.35-0.089 0.715-0.223 1.092-0.396 0.289-0.138 0.561-0.303 0.814-0.494 0.253-0.193 0.517-0.426 0.79-0.699h0.071c0.169 0.546 0.484 0.965 0.949 1.259 0.465 0.293 1.19 0.438 2.176 0.438 0.536 0 1.045-0.064 1.525-0.192s0.896-0.269 1.25-0.421v-0.879zm-6.021-1.302c-0.217 0.265-0.468 0.487-0.754 0.668-0.286 0.183-0.65 0.271-1.094 0.271-0.419 0-0.771-0.139-1.057-0.42-0.287-0.282-0.43-0.738-0.43-1.363 0-0.475 0.084-0.888 0.254-1.238 0.169-0.349 0.403-0.638 0.701-0.862 0.281-0.218 0.644-0.425 1.087-0.622 0.442-0.197 0.89-0.371 1.342-0.525l-0.049 4.091z"/></svg><svg xmlns:xlink="http://www.w3.org/1999/xlink" id="logo-htmlacademy" xml:space="preserve" height="54" viewBox="-10 -10 46.096 53.803" width="46" version="1.0" y="50" x="0px" enable-background="new 0 0 26.096 33.803">	<path fill="#bdbbbc" d="m13.047 0l-13.047 1.456v24.475l13.047 7.835v0.037l13.049-7.872v-24.373l-13.049-1.558zm10.99 24.745l-10.989 6.622v-7.385l-6.369-2.858v-0.021l6.373-2.816v-0.02h0.002v0.011l6.365 2.814v-0.006l0.01 0.006v-1.234l-6.365-2.813-0.004 0.003-0.006-0.003v0.011h-0.002v-0.003l-6.374 2.817v-1.235l5.849-2.585-1.386-0.621-4.463 1.973v-1.234l3.078-1.361-1.386-0.621-1.692 0.748v-1.234l0.307-0.135-3.73-1.675 9.793-4.248v-5.558l10.989 1.321v21.34z"/>	<polygon fill="#bdbbbc" points="19.428 17.39 14.958 15.413 13.57 16.035 19.428 18.624"/>	<polygon fill="#bdbbbc" points="19.428 14.921 17.734 14.173 16.346 14.793 19.428 16.155"/></svg></svg>
